<?xml version="1.0" encoding="UTF-8"?>
<svg width="155px" height="123px" viewBox="0 0 155 123" version="1.1" xmlns="http://www.w3.org/2000/svg" xmlns:xlink="http://www.w3.org/1999/xlink">
    <title>Group 2</title>
    <g id="Page-1" stroke="none" stroke-width="1" fill="none" fill-rule="evenodd">
        <g id="Group-2">
            <ellipse id="Oval" fill="#000000" cx="77" cy="61" rx="72" ry="55"></ellipse>
            <ellipse id="Oval-Copy-2" stroke="#1A88E7" stroke-width="7" cx="77.5" cy="61.5" rx="74" ry="58"></ellipse>
            <g id="Group" transform="translate(23.620556, 19.000000)">
                <path d="M26.3218857,10.1557377 C27.4738761,10.1557377 28.4077489,11.0896105 28.4077489,12.241601 L28.4071742,15.7497377 L33.9083512,15.75 C34.8114725,15.75 35.5435971,16.4821245 35.5435971,17.3852459 C35.5435971,18.2883673 34.8114725,19.0204918 33.9083512,19.0204918 L28.4071742,19.0197377 L28.4077489,22.5288908 C28.4077489,23.6808813 27.4738761,24.6147541 26.3218857,24.6147541 C25.1698952,24.6147541 24.2360224,23.6808813 24.2360224,22.5288908 L24.2351742,19.0197377 L18.7354201,19.0204918 C17.8322988,19.0204918 17.1001742,18.2883673 17.1001742,17.3852459 C17.1001742,16.4821245 17.8322988,15.75 18.7354201,15.75 L24.2351742,15.7497377 L24.2360224,12.241601 C24.2360224,11.0896105 25.1698952,10.1557377 26.3218857,10.1557377 Z" id="Combined-Shape" fill="#FFFFFF"></path>
                <path d="M23.1381996,30.1229508 C23.8657725,30.1229508 24.4555869,30.7127652 24.4555869,31.4403382 L24.4547388,33.6509508 L27.9238735,33.6516393 C28.4942659,33.6516393 28.9566603,34.1140338 28.9566603,34.6844262 C28.9566603,35.2548187 28.4942659,35.7172131 27.9238735,35.7172131 L24.4547388,35.7169508 L24.4555869,37.7563831 C24.4555869,38.4839561 23.8657725,39.0737705 23.1381996,39.0737705 C22.4106266,39.0737705 21.8208122,38.4839561 21.8208122,37.7563831 L21.8207388,35.7169508 L18.3525257,35.7172131 C17.7821332,35.7172131 17.3197388,35.2548187 17.3197388,34.6844262 C17.3197388,34.1140338 17.7821332,33.6516393 18.3525257,33.6516393 L21.8207388,33.6509508 L21.8208122,31.4403382 C21.8208122,30.7127652 22.4106266,30.1229508 23.1381996,30.1229508 Z" id="Combined-Shape-Copy" fill="#FFFFFF"></path>
                <path d="M39.8251059,28.5737705 C40.5526789,28.5737705 41.1424933,29.1635849 41.1424933,29.8911578 L41.1416452,32.1017705 L44.6107798,32.102459 C45.1811723,32.102459 45.6435667,32.5648535 45.6435667,33.1352459 C45.6435667,33.7056383 45.1811723,34.1680328 44.6107798,34.1680328 L41.1416452,34.1677705 L41.1424933,36.2072028 C41.1424933,36.9347758 40.5526789,37.5245902 39.8251059,37.5245902 C39.097533,37.5245902 38.5077186,36.9347758 38.5077186,36.2072028 L38.5076452,34.1677705 L35.039432,34.1680328 C34.4690396,34.1680328 34.0066452,33.7056383 34.0066452,33.1352459 C34.0066452,32.5648535 34.4690396,32.102459 35.039432,32.102459 L38.5076452,32.1017705 L38.5077186,29.8911578 C38.5077186,29.1635849 39.097533,28.5737705 39.8251059,28.5737705 Z" id="Combined-Shape-Copy-2" fill="#FFFFFF"></path>
                <path d="M42.6794452,4.30327869 C43.4070181,4.30327869 43.9968325,4.89309309 43.9968325,5.62066603 L43.9959844,7.83127869 L47.4651191,7.83196721 C48.0355115,7.83196721 48.4979059,8.29436165 48.4979059,8.8647541 C48.4979059,9.43514654 48.0355115,9.89754098 47.4651191,9.89754098 L43.9959844,9.89727869 L43.9968325,11.936711 C43.9968325,12.664284 43.4070181,13.2540984 42.6794452,13.2540984 C41.9518722,13.2540984 41.3620578,12.664284 41.3620578,11.936711 L41.3619844,9.89727869 L37.8937713,9.89754098 C37.3233788,9.89754098 36.8609844,9.43514654 36.8609844,8.8647541 C36.8609844,8.29436165 37.3233788,7.83196721 37.8937713,7.83196721 L41.3619844,7.83127869 L41.3620578,5.62066603 C41.3620578,4.89309309 41.9518722,4.30327869 42.6794452,4.30327869 Z" id="Combined-Shape-Copy-3" fill="#FFFFFF"></path>
                <path d="M75.6141288,0.5 C82.9497351,0.5 89.5938246,2.82515739 94.4020808,6.59466678 C99.1608311,10.3253652 102.120569,15.4743998 102.120569,21.1721311 C102.120569,26.8698624 99.1608311,32.018897 94.4020808,35.7495955 C89.5938246,39.5191049 82.9497351,41.8442623 75.6141288,41.8442623 C68.2785225,41.8442623 61.634433,39.5191049 56.8261768,35.7495955 C52.0674264,32.018897 49.1076882,26.8698624 49.1076882,21.1721311 C49.1076882,15.4743998 52.0674264,10.3253652 56.8261768,6.59466678 C61.634433,2.82515739 68.2785225,0.5 75.6141288,0.5 Z M75.6141288,1.04918033 C68.5801695,1.04918033 62.215059,3.29016802 57.6065066,6.90311641 C52.9484483,10.5548757 50.0837692,15.6046116 50.0837692,21.1721311 C50.0837692,26.7396507 52.9484483,31.7893866 57.6065066,35.4411459 C62.215059,39.0540943 68.5801695,41.295082 75.6141288,41.295082 C82.6480881,41.295082 89.0131986,39.0540943 93.621751,35.4411459 C98.2798093,31.7893866 101.144488,26.7396507 101.144488,21.1721311 C101.144488,15.6046116 98.2798093,10.5548757 93.621751,6.90311641 C89.0131986,3.29016802 82.6480881,1.04918033 75.6141288,1.04918033 Z" id="Combined-Shape" stroke="#FFFFFF"></path>
                <path d="M82.6906303,13.4511367 C83.7613702,13.4511367 84.83211,13.8000235 85.7221661,14.4977973 C86.2946972,14.9466422 86.6310965,15.5850591 86.7121518,16.2543976 C86.7932071,16.923736 86.6189184,17.623996 86.1700734,18.1965272 C86.0393287,18.3633006 85.8889395,18.5136898 85.7222394,18.644377 L81.5355154,21.9259967 L85.7221661,25.2087262 C86.2946972,25.6575712 86.6310965,26.2959881 86.7121518,26.9653265 C86.7932071,27.634665 86.6189184,28.334925 86.1700734,28.9074561 C86.0393287,29.0742295 85.8889395,29.2246187 85.7221661,29.3553634 C84.83211,30.0531372 83.7613702,30.402024 82.6906303,30.402024 C81.6198905,30.402024 80.5491506,30.0531372 79.6590988,29.3553668 L75.8593463,26.3764561 L72.0596744,29.3553634 C71.1696183,30.0531372 70.0988785,30.402024 69.0281386,30.402024 C67.9573988,30.402024 66.8866589,30.0531372 65.9966028,29.3553634 C65.4240717,28.9065185 65.0876724,28.2681016 65.0066171,27.5987631 C64.9255618,26.9294247 65.0998505,26.2291647 65.5486955,25.6566335 C65.6794402,25.4898601 65.8298294,25.3394709 65.9967931,25.208577 L70.1818541,21.9259968 L65.9966028,18.6444345 C65.4240717,18.1955896 65.0876724,17.5571726 65.0066171,16.8878342 C64.9255618,16.2184957 65.0998505,15.5182357 65.5486955,14.9457046 C65.6794402,14.7789312 65.8298294,14.628542 65.9966028,14.4977973 C66.8866589,13.8000235 67.9573988,13.4511367 69.0281386,13.4511367 C70.0988785,13.4511367 71.1696183,13.8000235 72.0597983,14.4978944 L75.8593464,17.4756452 L79.6590945,14.4977973 C80.5491506,13.8000235 81.6198905,13.4511367 82.6906303,13.4511367 Z" id="Combined-Shape" stroke="#FFFFFF" stroke-width="2"></path>
                <path d="M17.7135305,47.3627125 C18.9550801,47.3106496 20.1001949,47.7667528 20.9479381,48.5462591 C21.7956814,49.3257654 22.346053,50.4286749 22.3978867,51.6637595 L23.1006158,75.9131226 C23.1348697,77.0958416 22.7081801,78.1907873 21.9785154,79.0187175 C21.2488507,79.8466477 20.2162109,80.4075624 19.0385644,80.5222192 L10.6002228,81.3437842 C9.36343019,81.4641995 8.19491665,81.0719058 7.30549745,80.3403102 C6.41997355,79.6119186 5.8111047,78.5471906 5.68694835,77.3172647 L4.93580333,52.347129 C4.89932356,51.115815 5.36130965,49.9842929 6.14010884,49.1476966 C6.91890803,48.3111003 8.01452032,47.7694297 9.24529295,47.7178186 Z" id="Rectangle" stroke="#FFFFFF" fill="#FFFFFF" transform="translate(14.012691, 64.505354) rotate(-15.000000) translate(-14.012691, -64.505354) "></path>
                <path d="M18.7656807,48.0248652 C22.2456586,46.3397687 24.9431477,45.2420653 26.8581482,44.7317548 C28.7731487,44.2214444 31.7645007,43.8031821 35.8322043,43.476968 C39.3399126,43.2325481 42.9012429,43.3674631 46.5161952,43.8817127 C50.1311475,44.3959623 52.6385495,45.363431 54.0384013,46.7841186 L74.0088025,46.9882727 C75.2684843,47.1006465 76.3401999,47.5456494 77.2239493,48.3232815 C78.1076987,49.1009136 78.5061391,49.7987351 78.4192706,50.4167458 L99.8564076,45.1250921 C102.670702,45.0597819 104.606743,45.878466 105.664533,47.5811445 C106.722322,49.283823 106.485529,51.0673118 104.954154,52.9316109 L100.184121,55.4022691 L85.5424707,61.4490995 L65.2749531,69.3635255 C64.124656,69.9517262 61.2294657,70.1956785 56.589382,70.0953824 C51.9492983,69.9950864 46.4059029,69.9950864 39.9591956,70.0953824 L26.9551325,74.6487309 L26.1802564,71.9266536 L38.9622358,67.6638144 L62.818126,67.5430237 L101.949794,51.9559124 C103.404942,51.3800444 103.745666,50.3809286 102.971966,48.9585651 C102.198266,47.5362016 100.831384,47.1107811 98.8713194,47.6823037 L78.4192706,52.9316109 C77.8900982,54.1535387 77.3030796,54.9770914 76.6582147,55.4022691 C76.0133499,55.8274468 74.7229036,56.2417599 72.786876,56.6452085 L53.4381085,56.5561279 C52.7377633,56.5197867 52.3875907,56.1760411 52.3875907,55.5248909 C52.3875907,54.8737408 52.7377633,54.4879783 53.4381085,54.3676036 L73.0791717,54.2218172 C74.6877579,54.0884487 75.492051,53.3331471 75.492051,51.9559124 C75.492051,50.5786777 74.6334877,49.7520673 72.9163612,49.4760813 L53.253604,49.4760813 C51.6346843,47.9442249 49.7583265,46.9433951 47.6245306,46.473592 C45.4907348,46.0037888 41.7237026,45.7620992 36.3234341,45.7485233 C32.661944,45.9907003 29.7902657,46.4039501 27.7083992,46.9882727 C25.6265327,47.5725954 22.9541185,48.7154197 19.6911565,50.4167458 L18.7656807,48.0248652 Z" id="Path" stroke="#FFFFFF" fill="#FFFFFF"></path>
            </g>
        </g>
    </g>
</svg>